<?xml version="1.0" encoding="UTF-8"?>
<svg xmlns="http://www.w3.org/2000/svg" xmlns:xlink="http://www.w3.org/1999/xlink" width="300px" height="400px" viewBox="0 0 300 261" version="1.1">
<g id="surface1">
<path style=" stroke:none;fill-rule:nonzero;fill:rgb(100%,100%,100%);fill-opacity:1;" d="M 49.734375 90.847656 C 49.03125 90.917969 48.328125 90.933594 47.625 90.898438 C 47.375 90.871094 47.148438 91.046875 47.117188 91.296875 L 45.769531 101.378906 C 45.664062 102.109375 45.367188 102.800781 44.898438 103.375 C 44.125 104.300781 43.769531 105.507812 43.917969 106.703125 L 43.917969 123.832031 C 43.917969 123.832031 43.832031 126.113281 45.589844 126.113281 C 47.695312 126.378906 49.824219 126.378906 51.925781 126.113281 C 51.925781 126.113281 53.335938 125.847656 53.335938 123.742188 L 53.335938 106.875 C 53.550781 105.6875 53.234375 104.460938 52.464844 103.523438 C 52.015625 102.945312 51.726562 102.261719 51.625 101.539062 L 50.222656 91.242188 C 50.191406 91.003906 49.976562 90.832031 49.734375 90.847656 Z M 49.734375 90.847656 "/>
<path style=" stroke:none;fill-rule:nonzero;fill:rgb(24.705882%,23.921569%,33.72549%);fill-opacity:1;" d="M 48.753906 126.601562 C 47.6875 126.601562 46.625 126.535156 45.570312 126.402344 C 45.09375 126.414062 44.632812 126.226562 44.300781 125.886719 C 43.585938 125.144531 43.625 123.875 43.628906 123.820312 L 43.628906 106.71875 C 43.476562 105.449219 43.855469 104.171875 44.679688 103.191406 C 45.109375 102.65625 45.386719 102.015625 45.484375 101.339844 L 46.828125 91.257812 C 46.882812 90.855469 47.25 90.566406 47.65625 90.609375 C 48.339844 90.644531 49.023438 90.628906 49.707031 90.558594 L 49.714844 90.558594 C 50.109375 90.53125 50.457031 90.8125 50.511719 91.203125 L 51.910156 101.5 C 52.007812 102.171875 52.277344 102.808594 52.695312 103.347656 C 53.507812 104.339844 53.847656 105.636719 53.625 106.902344 L 53.625 123.742188 C 53.625 126.0625 51.996094 126.394531 51.980469 126.398438 C 50.910156 126.53125 49.832031 126.601562 48.753906 126.601562 Z M 47.582031 91.183594 C 47.496094 91.179688 47.417969 91.242188 47.402344 91.332031 L 46.054688 101.417969 C 45.945312 102.199219 45.625 102.941406 45.125 103.558594 C 44.402344 104.421875 44.070312 105.546875 44.207031 106.667969 L 44.207031 123.832031 C 44.207031 123.851562 44.175781 124.921875 44.722656 125.484375 C 44.949219 125.714844 45.265625 125.839844 45.589844 125.824219 L 45.625 125.828125 C 47.707031 126.085938 49.8125 126.085938 51.890625 125.828125 C 51.917969 125.820312 53.046875 125.5625 53.046875 123.742188 L 53.050781 106.824219 C 53.253906 105.71875 52.957031 104.578125 52.242188 103.707031 C 51.757812 103.085938 51.449219 102.355469 51.335938 101.578125 L 49.9375 91.28125 C 49.925781 91.195312 49.847656 91.132812 49.757812 91.136719 C 49.042969 91.207031 48.324219 91.222656 47.609375 91.183594 C 47.601562 91.183594 47.589844 91.183594 47.582031 91.183594 Z M 47.582031 91.183594 "/>
<path style=" stroke:none;fill-rule:nonzero;fill:rgb(80%,0%,0%);fill-opacity:1;" d="M 47.609375 107.007812 L 49.742188 107.007812 C 51.511719 107.007812 52.945312 108.441406 52.945312 110.203125 L 52.945312 118.21875 C 52.945312 119.984375 51.511719 121.414062 49.742188 121.414062 L 47.609375 121.414062 C 45.839844 121.414062 44.40625 119.984375 44.40625 118.21875 L 44.40625 110.203125 C 44.40625 108.441406 45.839844 107.007812 47.609375 107.007812 Z M 47.609375 107.007812 "/>
<path style=" stroke:none;fill-rule:nonzero;fill:rgb(62.352941%,38.039216%,41.568627%);fill-opacity:1;" d="M 8.363281 254.234375 L 15.320312 254.234375 L 18.632812 227.445312 L 8.359375 227.445312 Z M 8.363281 254.234375 "/>
<path style=" stroke:none;fill-rule:nonzero;fill:rgb(18.431373%,18.039216%,25.490196%);fill-opacity:1;" d="M 6.585938 251.96875 L 20.292969 251.964844 C 25.117188 251.96875 29.027344 255.871094 29.027344 260.683594 L 29.027344 260.96875 L 6.585938 260.96875 Z M 6.585938 251.96875 "/>
<path style=" stroke:none;fill-rule:nonzero;fill:rgb(18.431373%,18.039216%,25.490196%);fill-opacity:1;" d="M 3.988281 158.546875 C 3.988281 158.546875 0.96875 161.949219 5.964844 175.210938 L 5.085938 247.941406 L 21.269531 247.628906 L 24.828125 212.148438 L 31.308594 160.378906 Z M 3.988281 158.546875 "/>
<path style=" stroke:none;fill-rule:nonzero;fill:rgb(24.705882%,23.921569%,33.72549%);fill-opacity:1;" d="M 36.859375 168.601562 L 36.679688 168.574219 C 15.976562 165.421875 0.347656 162.402344 0.195312 162.371094 L 0 162.332031 L 5.429688 149.15625 C 5.386719 147.78125 4.210938 109.121094 6.460938 98.011719 C 8.636719 87.257812 18.898438 85.496094 20.070312 85.332031 L 21.246094 81.449219 L 36.082031 89.152344 L 38.667969 98.039062 L 39.195312 122.398438 Z M 36.859375 168.601562 "/>
<path style=" stroke:none;fill-rule:nonzero;fill:rgb(62.352941%,38.039216%,41.568627%);fill-opacity:1;" d="M 45.792969 118.464844 C 44.441406 118.464844 43.152344 119.027344 42.238281 120.015625 L 17.296875 120.015625 L 8.164062 121.957031 L 9.664062 133.5 L 42.160156 126.527344 C 43.640625 128.195312 46.074219 128.640625 48.054688 127.605469 C 50.035156 126.570312 51.046875 124.316406 50.511719 122.152344 C 49.976562 119.984375 48.03125 118.460938 45.792969 118.464844 Z M 45.792969 118.464844 "/>
<path style=" stroke:none;fill-rule:nonzero;fill:rgb(62.352941%,38.039216%,41.568627%);fill-opacity:1;" d="M 41.230469 60.804688 C 47.054688 63.984375 49.195312 71.269531 46.011719 77.085938 C 42.828125 82.898438 35.523438 85.03125 29.699219 81.855469 C 23.875 78.679688 21.734375 71.390625 24.917969 65.578125 C 28.101562 59.765625 35.40625 57.628906 41.230469 60.804688 Z M 41.230469 60.804688 "/>
<path style=" stroke:none;fill-rule:nonzero;fill:rgb(18.431373%,18.039216%,25.490196%);fill-opacity:1;" d="M 24.160156 61.742188 L 23.578125 60.570312 L 26.507812 59.117188 C 26.507812 59.117188 29.742188 53.867188 35.597656 55.339844 C 41.449219 56.816406 44.082031 57.699219 44.082031 57.699219 L 47.007812 59.167969 L 45.539062 60.625 L 48.171875 61.511719 L 46.414062 62.382812 L 48.460938 63.554688 L 47.359375 69.574219 C 47.359375 69.574219 45.527344 65.011719 42.007812 66.753906 C 38.492188 68.5 32.054688 65.851562 32.054688 65.851562 L 26.464844 76.652344 C 26.464844 76.652344 25.3125 72.867188 23.253906 73.875 C 23.253906 73.875 18 65.523438 24.160156 61.742188 Z M 24.160156 61.742188 "/>
<path style=" stroke:none;fill-rule:nonzero;fill:rgb(24.705882%,23.921569%,33.72549%);fill-opacity:1;" d="M 9.824219 135.664062 L 6.972656 127.199219 L 6.28125 98.976562 L 7.496094 94.972656 C 8.6875 91.046875 11.933594 88.089844 15.960938 87.261719 C 19.984375 86.429688 24.140625 87.867188 26.789062 91 C 29.441406 94.132812 30.160156 98.460938 28.667969 102.28125 L 22.15625 118.9375 L 22.484375 119.582031 L 36.597656 119.464844 L 41.609375 128.46875 Z M 9.824219 135.664062 "/>
<path style=" stroke:none;fill-rule:nonzero;fill:rgb(100%,71.764706%,71.764706%);fill-opacity:1;" d="M 151.003906 132.1875 C 152.066406 131.46875 152.761719 130.320312 152.894531 129.042969 C 153.027344 127.765625 152.589844 126.496094 151.695312 125.578125 L 158.652344 111.828125 L 150.683594 112.75 L 145.300781 125.664062 C 143.816406 127.300781 143.792969 129.789062 145.25 131.453125 C 146.703125 133.117188 149.175781 133.429688 151.003906 132.1875 Z M 151.003906 132.1875 "/>
<path style=" stroke:none;fill-rule:nonzero;fill:rgb(100%,71.764706%,71.764706%);fill-opacity:1;" d="M 206.78125 229.578125 L 200.515625 229.578125 L 197.53125 205.449219 L 206.785156 205.449219 Z M 206.78125 229.578125 "/>
<path style=" stroke:none;fill-rule:nonzero;fill:rgb(18.431373%,18.039216%,25.490196%);fill-opacity:1;" d="M 208.382812 235.644531 L 188.167969 235.644531 L 188.167969 235.386719 C 188.171875 231.050781 191.691406 227.535156 196.035156 227.535156 L 196.039062 227.535156 L 208.382812 227.539062 Z M 208.382812 235.644531 "/>
<path style=" stroke:none;fill-rule:nonzero;fill:rgb(100%,71.764706%,71.764706%);fill-opacity:1;" d="M 172.527344 229.578125 L 166.257812 229.578125 L 163.277344 205.449219 L 172.527344 205.449219 Z M 172.527344 229.578125 "/>
<path style=" stroke:none;fill-rule:nonzero;fill:rgb(18.431373%,18.039216%,25.490196%);fill-opacity:1;" d="M 172.589844 235.644531 L 152.378906 235.644531 L 152.378906 235.386719 C 152.378906 231.050781 155.902344 227.539062 160.246094 227.535156 L 172.589844 227.539062 Z M 172.589844 235.644531 "/>
<path style=" stroke:none;fill-rule:nonzero;fill:rgb(18.431373%,18.039216%,25.490196%);fill-opacity:1;" d="M 172.011719 127.671875 L 165.878906 141.777344 L 160.816406 222.855469 L 173.597656 222.347656 L 177.089844 183.695312 L 187.859375 149.269531 L 194.050781 187.648438 L 196.605469 221.324219 L 207.183594 221.78125 L 211.398438 127.671875 Z M 172.011719 127.671875 "/>
<path style=" stroke:none;fill-rule:nonzero;fill:rgb(80%,0%,0%);fill-opacity:1;" d="M 202.683594 58.0625 L 184.898438 58.507812 L 174.460938 63.855469 L 173.886719 103.316406 L 167.375 130.5625 C 167.375 130.5625 208.058594 133.355469 213.683594 129.273438 L 207.035156 98.148438 L 215.949219 64.511719 Z M 202.683594 58.0625 "/>
<path style=" stroke:none;fill-rule:nonzero;fill:rgb(80%,0%,0%);fill-opacity:1;" d="M 177.207031 64.511719 L 175.550781 63.394531 C 175.550781 63.394531 168.691406 65.445312 166.664062 74.570312 C 166.664062 74.570312 165.113281 79.152344 164.433594 82.300781 C 163.652344 85.910156 146.414062 119.078125 146.414062 119.078125 L 156.734375 122.03125 L 175.65625 91.492188 Z M 177.207031 64.511719 "/>
<path style=" stroke:none;fill-rule:nonzero;fill:rgb(100%,71.764706%,71.764706%);fill-opacity:1;" d="M 215.671875 137.246094 C 214.847656 136.265625 214.496094 134.96875 214.722656 133.703125 C 214.945312 132.441406 215.71875 131.339844 216.832031 130.703125 L 213.945312 115.570312 L 221.347656 118.648438 L 222.953125 132.546875 C 223.929688 134.527344 223.261719 136.925781 221.40625 138.125 C 219.546875 139.324219 217.085938 138.945312 215.671875 137.246094 Z M 215.671875 137.246094 "/>
<path style=" stroke:none;fill-rule:nonzero;fill:rgb(80%,0%,0%);fill-opacity:1;" d="M 213.277344 64.984375 L 215.175781 64.367188 C 215.175781 64.367188 221.199219 68.226562 220.628906 77.554688 C 220.628906 77.554688 220.851562 82.382812 220.636719 85.597656 C 220.390625 89.28125 223.703125 125.90625 223.703125 125.90625 L 212.96875 125.90625 L 208.367188 92.742188 Z M 213.277344 64.984375 "/>
<path style=" stroke:none;fill-rule:nonzero;fill:rgb(100%,71.764706%,71.764706%);fill-opacity:1;" d="M 207.046875 41.507812 C 207.046875 48.300781 201.527344 53.808594 194.71875 53.808594 C 187.914062 53.808594 182.394531 48.300781 182.394531 41.507812 C 182.394531 34.710938 187.914062 29.203125 194.71875 29.203125 C 201.511719 29.1875 207.03125 34.667969 207.046875 41.445312 C 207.046875 41.464844 207.046875 41.488281 207.046875 41.507812 Z M 207.046875 41.507812 "/>
<path style=" stroke:none;fill-rule:nonzero;fill:rgb(18.431373%,18.039216%,25.490196%);fill-opacity:1;" d="M 182.433594 24.984375 C 183.878906 21.882812 186.671875 22.496094 189.117188 23.546875 C 192.210938 22.863281 195.15625 20.8125 198.488281 22.023438 C 201.773438 26.792969 212.804688 25.390625 210.457031 33.152344 C 210.453125 35.011719 213.964844 33.929688 213.351562 36.976562 C 215.210938 42.835938 206.640625 53.941406 201.71875 51.601562 C 202.9375 49.375 205.714844 44.320312 201.5 43.820312 C 192.429688 52.242188 200.5625 27.78125 189.167969 34.894531 C 185.394531 38.339844 180.230469 28.429688 182.433594 24.984375 Z M 182.433594 24.984375 "/>
<path style=" stroke:none;fill-rule:nonzero;fill:rgb(62.352941%,38.039216%,41.568627%);fill-opacity:1;" d="M 217.832031 138.472656 C 219.019531 138.710938 220.253906 138.414062 221.199219 137.65625 C 222.144531 136.898438 222.707031 135.765625 222.734375 134.554688 L 253.6875 105.480469 L 246.722656 99.9375 L 218.433594 130.332031 C 216.347656 130.425781 214.664062 132.058594 214.507812 134.136719 C 214.355469 136.210938 215.78125 138.074219 217.832031 138.472656 Z M 217.832031 138.472656 "/>
<path style=" stroke:none;fill-rule:nonzero;fill:rgb(79.607843%,79.607843%,79.607843%);fill-opacity:1;" d="M 249.300781 110.179688 L 243.277344 103.136719 C 242.929688 102.730469 242.777344 102.195312 242.859375 101.667969 C 242.941406 101.140625 243.25 100.675781 243.699219 100.394531 L 251.539062 95.496094 C 253.691406 93.6875 256.902344 93.953125 258.71875 96.09375 C 260.539062 98.234375 260.28125 101.4375 258.140625 103.261719 L 252.082031 110.195312 C 251.730469 110.597656 251.222656 110.824219 250.6875 110.824219 C 250.152344 110.820312 249.648438 110.585938 249.300781 110.179688 Z M 249.300781 110.179688 "/>
<path style=" stroke:none;fill-rule:nonzero;fill:rgb(62.352941%,38.039216%,41.568627%);fill-opacity:1;" d="M 233.105469 253.648438 L 225.539062 253.644531 L 221.9375 224.515625 L 233.109375 224.515625 Z M 233.105469 253.648438 "/>
<path style=" stroke:none;fill-rule:nonzero;fill:rgb(18.431373%,18.039216%,25.490196%);fill-opacity:1;" d="M 235.035156 260.96875 L 210.636719 260.96875 L 210.636719 260.660156 C 210.636719 255.425781 214.886719 251.179688 220.132812 251.179688 L 235.039062 251.179688 Z M 235.035156 260.96875 "/>
<path style=" stroke:none;fill-rule:nonzero;fill:rgb(62.352941%,38.039216%,41.568627%);fill-opacity:1;" d="M 293.601562 253.648438 L 286.035156 253.644531 L 282.433594 224.515625 L 293.601562 224.515625 Z M 293.601562 253.648438 "/>
<path style=" stroke:none;fill-rule:nonzero;fill:rgb(18.431373%,18.039216%,25.490196%);fill-opacity:1;" d="M 295.53125 260.96875 L 271.128906 260.96875 L 271.128906 260.660156 C 271.128906 255.425781 275.382812 251.179688 280.628906 251.179688 L 295.53125 251.179688 Z M 295.53125 260.96875 "/>
<path style=" stroke:none;fill-rule:nonzero;fill:rgb(18.431373%,18.039216%,25.490196%);fill-opacity:1;" d="M 273.246094 125.621094 L 280.875 97.496094 L 270.976562 91.941406 L 257.164062 91.941406 L 251.789062 97.679688 C 251.789062 97.679688 242.8125 103.914062 244.988281 110.816406 L 248.492188 126.546875 L 243.132812 151.527344 L 216.121094 188.90625 L 209.730469 225.625 L 234.898438 232.207031 L 262.113281 178.730469 L 275.304688 237.945312 L 299.855469 236.714844 L 291.394531 164.914062 C 291.394531 164.914062 288.984375 143.042969 276.34375 129.386719 Z M 273.246094 125.621094 "/>
<path style=" stroke:none;fill-rule:nonzero;fill:rgb(62.352941%,38.039216%,41.568627%);fill-opacity:1;" d="M 289 150.507812 C 289.859375 149.65625 290.300781 148.46875 290.199219 147.261719 C 290.097656 146.058594 289.464844 144.957031 288.472656 144.261719 L 282.554688 104.410156 L 274.058594 107.089844 L 282.5625 145.46875 C 281.476562 147.246094 281.894531 149.554688 283.539062 150.839844 C 285.179688 152.125 287.527344 151.984375 289 150.507812 Z M 289 150.507812 "/>
<path style=" stroke:none;fill-rule:nonzero;fill:rgb(79.607843%,79.607843%,79.607843%);fill-opacity:1;" d="M 284.019531 110.664062 L 274.800781 111.726562 C 274.269531 111.785156 273.742188 111.613281 273.347656 111.253906 C 272.953125 110.890625 272.738281 110.378906 272.753906 109.847656 L 273.054688 100.621094 C 272.746094 97.832031 274.761719 95.320312 277.554688 95.007812 C 280.351562 94.695312 282.871094 96.695312 283.191406 99.484375 L 285.582031 108.371094 C 285.71875 108.882812 285.625 109.433594 285.328125 109.875 C 285.027344 110.316406 284.546875 110.605469 284.019531 110.664062 Z M 284.019531 110.664062 "/>
<path style=" stroke:none;fill-rule:nonzero;fill:rgb(18.431373%,18.039216%,25.490196%);fill-opacity:1;" d="M 248.621094 83.945312 L 248.621094 72.09375 C 248.621094 63.324219 255.746094 56.210938 264.535156 56.210938 C 273.324219 56.210938 280.449219 63.324219 280.449219 72.09375 L 280.449219 83.945312 C 280.445312 85.121094 279.488281 86.078125 278.308594 86.078125 L 250.761719 86.078125 C 249.578125 86.078125 248.625 85.121094 248.621094 83.945312 Z M 248.621094 83.945312 "/>
<path style=" stroke:none;fill-rule:nonzero;fill:rgb(62.352941%,38.039216%,41.568627%);fill-opacity:1;" d="M 271.503906 68.574219 C 274.59375 74.214844 272.515625 81.289062 266.859375 84.375 C 261.207031 87.460938 254.117188 85.386719 251.027344 79.742188 C 247.9375 74.101562 250.015625 67.027344 255.667969 63.941406 C 261.324219 60.859375 268.410156 62.933594 271.503906 68.574219 Z M 271.503906 68.574219 "/>
<path style=" stroke:none;fill-rule:nonzero;fill:rgb(18.431373%,18.039216%,25.490196%);fill-opacity:1;" d="M 244.859375 73.042969 C 244.867188 66.105469 250.496094 60.488281 257.445312 60.480469 L 259.820312 60.480469 C 266.769531 60.488281 272.402344 66.105469 272.40625 73.042969 L 272.40625 73.277344 L 267.390625 73.277344 L 265.675781 68.496094 L 265.335938 73.277344 L 262.742188 73.277344 L 261.878906 70.863281 L 261.703125 73.277344 L 244.859375 73.277344 Z M 244.859375 73.042969 "/>
<path style=" stroke:none;fill-rule:nonzero;fill:rgb(18.431373%,18.039216%,25.490196%);fill-opacity:1;" d="M 260.117188 87.410156 C 259.636719 86.761719 259.570312 85.894531 259.949219 85.179688 C 262.464844 80.402344 265.992188 71.574219 261.3125 66.128906 L 260.976562 65.738281 L 274.554688 65.738281 L 274.554688 86.085938 L 262.21875 88.257812 C 262.09375 88.277344 261.96875 88.289062 261.84375 88.289062 C 261.160156 88.289062 260.515625 87.960938 260.117188 87.410156 Z M 260.117188 87.410156 "/>
<path style=" stroke:none;fill-rule:nonzero;fill:rgb(100%,71.764706%,71.764706%);fill-opacity:1;" d="M 135.308594 98.246094 C 135.132812 98.421875 134.976562 98.609375 134.835938 98.8125 L 112.710938 98.273438 L 110.128906 93.566406 L 102.5 96.523438 L 106.257812 105.300781 C 106.882812 106.757812 108.394531 107.628906 109.96875 107.4375 L 134.96875 104.421875 C 136.175781 105.949219 138.203125 106.570312 140.058594 105.984375 C 141.914062 105.394531 143.214844 103.722656 143.320312 101.78125 C 143.425781 99.839844 142.320312 98.035156 140.539062 97.25 C 138.757812 96.464844 136.675781 96.859375 135.308594 98.246094 Z M 135.308594 98.246094 "/>
<path style=" stroke:none;fill-rule:nonzero;fill:rgb(100%,71.764706%,71.764706%);fill-opacity:1;" d="M 63.183594 232.339844 L 70.457031 232.339844 L 73.917969 204.335938 L 63.179688 204.339844 Z M 63.183594 232.339844 "/>
<path style=" stroke:none;fill-rule:nonzero;fill:rgb(18.431373%,18.039216%,25.490196%);fill-opacity:1;" d="M 61.324219 229.972656 L 75.652344 229.96875 C 80.695312 229.972656 84.785156 234.050781 84.785156 239.082031 L 84.785156 239.378906 L 61.328125 239.378906 Z M 61.324219 229.972656 "/>
<path style=" stroke:none;fill-rule:nonzero;fill:rgb(100%,71.764706%,71.764706%);fill-opacity:1;" d="M 129.242188 232.179688 L 135.929688 229.328125 L 128.089844 202.21875 L 118.214844 206.429688 Z M 129.242188 232.179688 "/>
<path style=" stroke:none;fill-rule:nonzero;fill:rgb(18.431373%,18.039216%,25.490196%);fill-opacity:1;" d="M 126.601562 230.726562 L 139.777344 225.109375 C 144.414062 223.132812 149.777344 225.28125 151.757812 229.910156 L 151.875 230.183594 L 130.304688 239.378906 Z M 126.601562 230.726562 "/>
<path style=" stroke:none;fill-rule:nonzero;fill:rgb(100%,71.764706%,71.764706%);fill-opacity:1;" d="M 98.542969 104.3125 L 99.070312 112.816406 L 83.691406 114.460938 L 67.601562 116.179688 L 72.335938 103.261719 Z M 98.542969 104.3125 "/>
<path style=" stroke:none;fill-rule:nonzero;fill:rgb(89.411765%,89.411765%,89.411765%);fill-opacity:1;" d="M 99.082031 107.363281 C 98.910156 107.296875 81.539062 100.550781 70.871094 106.066406 L 70.609375 106.203125 L 68.480469 95.746094 L 67.269531 73.269531 L 75.160156 69.546875 L 77.332031 64.691406 L 92.132812 63.816406 L 95.171875 67.980469 L 105.527344 71.367188 L 99.339844 107.464844 Z M 99.082031 107.363281 "/>
<path style=" stroke:none;fill-rule:nonzero;fill:rgb(89.411765%,89.411765%,89.411765%);fill-opacity:1;" d="M 99.625 87.074219 L 101.457031 72.722656 L 105.625 71.453125 L 105.695312 71.480469 C 105.792969 71.515625 108.058594 72.382812 108.675781 75.511719 C 109.273438 78.515625 113.753906 97.210938 113.800781 97.398438 L 113.84375 97.585938 L 103.3125 101.789062 Z M 99.625 87.074219 "/>
<path style=" stroke:none;fill-rule:nonzero;fill:rgb(18.431373%,18.039216%,25.490196%);fill-opacity:1;" d="M 123.820312 227.257812 L 137.84375 224.386719 L 115.433594 162.683594 L 107.765625 141.636719 C 107.765625 141.636719 102.902344 124.761719 100.703125 118.230469 L 99.378906 109.46875 L 67.984375 112.9375 C 67.984375 112.9375 59.214844 125.785156 61.878906 146.734375 L 60.675781 225.464844 L 74.695312 226.183594 L 86.4375 146.777344 L 107.046875 190.308594 C 107.046875 190.308594 113.542969 208.882812 118.191406 212.910156 Z M 123.820312 227.257812 "/>
<path style=" stroke:none;fill-rule:nonzero;fill:rgb(100%,71.764706%,71.764706%);fill-opacity:1;" d="M 80.574219 115.859375 C 80.328125 115.851562 80.078125 115.867188 79.835938 115.898438 L 65.1875 99.339844 L 66.890625 94.25 L 59.53125 90.679688 L 55.636719 99.398438 C 54.992188 100.84375 55.378906 102.542969 56.589844 103.566406 L 75.800781 119.8125 C 75.5 121.730469 76.425781 123.636719 78.117188 124.597656 C 79.8125 125.554688 81.925781 125.371094 83.421875 124.128906 C 84.921875 122.886719 85.492188 120.847656 84.859375 119.011719 C 84.226562 117.171875 82.519531 115.917969 80.574219 115.859375 Z M 80.574219 115.859375 "/>
<path style=" stroke:none;fill-rule:nonzero;fill:rgb(89.411765%,89.411765%,89.411765%);fill-opacity:1;" d="M 58.207031 93.132812 L 63.933594 76.859375 C 64.574219 74.9375 65.382812 73.773438 66.328125 73.394531 C 66.707031 73.222656 67.136719 73.21875 67.515625 73.382812 L 70.085938 76.617188 L 72.46875 86.609375 L 66.359375 100.953125 Z M 58.207031 93.132812 "/>
<path style=" stroke:none;fill-rule:nonzero;fill:rgb(18.431373%,18.039216%,25.490196%);fill-opacity:1;" d="M 96.105469 60.449219 L 70.96875 60.449219 C 69.890625 60.449219 69.019531 59.578125 69.019531 58.503906 L 69.019531 47.691406 C 69.019531 39.6875 75.519531 33.203125 83.539062 33.203125 C 91.554688 33.203125 98.054688 39.6875 98.054688 47.691406 L 98.054688 58.503906 C 98.054688 59.578125 97.183594 60.449219 96.105469 60.449219 Z M 96.105469 60.449219 "/>
<path style=" stroke:none;fill-rule:nonzero;fill:rgb(100%,71.764706%,71.764706%);fill-opacity:1;" d="M 97.164062 49.574219 C 97.164062 55.441406 92.398438 60.199219 86.519531 60.199219 C 80.640625 60.199219 75.875 55.441406 75.875 49.574219 C 75.875 43.707031 80.640625 38.953125 86.519531 38.953125 C 92.398438 38.953125 97.164062 43.707031 97.164062 49.574219 Z M 97.164062 49.574219 "/>
<path style=" stroke:none;fill-rule:nonzero;fill:rgb(18.431373%,18.039216%,25.490196%);fill-opacity:1;" d="M 101.488281 48.773438 L 86.121094 48.773438 L 85.960938 46.570312 L 85.175781 48.773438 L 82.808594 48.773438 L 82.496094 44.40625 L 80.933594 48.773438 L 76.355469 48.773438 L 76.355469 48.554688 C 76.359375 42.226562 81.5 37.101562 87.839844 37.09375 L 90.003906 37.09375 C 96.34375 37.101562 101.484375 42.226562 101.488281 48.554688 Z M 101.488281 48.773438 "/>
<path style=" stroke:none;fill-rule:nonzero;fill:rgb(18.431373%,18.039216%,25.490196%);fill-opacity:1;" d="M 85.996094 62.46875 C 85.878906 62.46875 85.761719 62.457031 85.648438 62.4375 L 74.394531 60.457031 L 74.394531 41.890625 L 86.785156 41.890625 L 86.476562 42.25 C 82.210938 47.214844 85.425781 55.269531 87.722656 59.628906 C 88.066406 60.28125 88.007812 61.074219 87.566406 61.664062 C 87.203125 62.167969 86.617188 62.46875 85.996094 62.46875 Z M 85.996094 62.46875 "/>
<path style=" stroke:none;fill-rule:nonzero;fill:rgb(100%,100%,100%);fill-opacity:1;" d="M 220.8125 107.085938 C 220.109375 107.160156 219.40625 107.175781 218.699219 107.136719 C 218.453125 107.109375 218.226562 107.289062 218.195312 107.535156 L 216.847656 117.617188 C 216.742188 118.351562 216.441406 119.039062 215.976562 119.617188 C 215.203125 120.542969 214.847656 121.746094 214.996094 122.941406 L 214.996094 140.070312 C 214.996094 140.070312 214.910156 142.355469 216.667969 142.355469 C 218.773438 142.617188 220.902344 142.617188 223.003906 142.355469 C 223.003906 142.355469 224.414062 142.089844 224.414062 139.980469 L 224.414062 123.117188 C 224.628906 121.925781 224.3125 120.699219 223.542969 119.761719 C 223.09375 119.1875 222.804688 118.5 222.699219 117.777344 L 221.300781 107.484375 C 221.269531 107.242188 221.054688 107.070312 220.8125 107.085938 Z M 220.8125 107.085938 "/>
<path style=" stroke:none;fill-rule:nonzero;fill:rgb(24.705882%,23.921569%,33.72549%);fill-opacity:1;" d="M 219.832031 142.839844 C 218.765625 142.839844 217.703125 142.773438 216.648438 142.644531 C 216.171875 142.65625 215.710938 142.464844 215.378906 142.125 C 214.664062 141.382812 214.703125 140.113281 214.707031 140.058594 L 214.707031 122.960938 C 214.554688 121.691406 214.933594 120.414062 215.753906 119.429688 C 216.1875 118.898438 216.464844 118.257812 216.558594 117.578125 L 217.90625 107.496094 C 217.960938 107.09375 218.328125 106.808594 218.730469 106.851562 C 219.417969 106.886719 220.101562 106.871094 220.785156 106.800781 L 220.792969 106.800781 C 221.1875 106.769531 221.535156 107.054688 221.589844 107.445312 L 222.988281 117.738281 C 223.085938 118.414062 223.355469 119.050781 223.773438 119.585938 C 224.585938 120.578125 224.925781 121.878906 224.703125 123.140625 L 224.703125 139.980469 C 224.703125 142.300781 223.074219 142.636719 223.058594 142.636719 C 221.988281 142.773438 220.910156 142.839844 219.832031 142.839844 Z M 218.660156 107.425781 C 218.574219 107.421875 218.496094 107.484375 218.480469 107.574219 L 217.132812 117.65625 C 217.023438 118.441406 216.703125 119.179688 216.203125 119.796875 C 215.480469 120.664062 215.148438 121.789062 215.285156 122.90625 L 215.285156 140.070312 C 215.285156 140.09375 215.253906 141.164062 215.800781 141.726562 C 216.027344 141.957031 216.34375 142.082031 216.667969 142.066406 L 216.703125 142.066406 C 218.785156 142.328125 220.890625 142.328125 222.96875 142.066406 C 222.996094 142.0625 224.125 141.804688 224.125 139.980469 L 224.128906 123.066406 C 224.332031 121.957031 224.035156 120.816406 223.320312 119.945312 C 222.835938 119.328125 222.523438 118.59375 222.414062 117.816406 L 221.015625 107.523438 C 221.003906 107.433594 220.925781 107.371094 220.835938 107.375 C 220.121094 107.449219 219.402344 107.464844 218.683594 107.425781 C 218.675781 107.425781 218.667969 107.425781 218.660156 107.425781 Z M 218.660156 107.425781 "/>
<path style=" stroke:none;fill-rule:nonzero;fill:rgb(80%,0%,0%);fill-opacity:1;" d="M 218.6875 123.25 L 220.820312 123.25 C 222.589844 123.25 224.023438 124.679688 224.023438 126.445312 L 224.023438 134.460938 C 224.023438 136.222656 222.589844 137.652344 220.820312 137.652344 L 218.6875 137.652344 C 216.917969 137.652344 215.484375 136.222656 215.484375 134.460938 L 215.484375 126.445312 C 215.484375 124.679688 216.917969 123.25 218.6875 123.25 Z M 218.6875 123.25 "/>
<path style=" stroke:none;fill-rule:nonzero;fill:rgb(100%,100%,100%);fill-opacity:1;" d="M 148.371094 93.199219 C 147.667969 93.269531 146.964844 93.289062 146.257812 93.25 C 146.007812 93.222656 145.785156 93.398438 145.753906 93.648438 L 144.40625 103.730469 C 144.300781 104.464844 144 105.152344 143.535156 105.730469 C 142.761719 106.652344 142.40625 107.859375 142.554688 109.054688 L 142.554688 126.183594 C 142.554688 126.183594 142.46875 128.46875 144.226562 128.46875 C 146.328125 128.730469 148.457031 128.730469 150.5625 128.46875 C 150.5625 128.46875 151.972656 128.199219 151.972656 126.09375 L 151.972656 109.230469 C 152.1875 108.039062 151.871094 106.8125 151.101562 105.875 C 150.652344 105.296875 150.363281 104.613281 150.257812 103.890625 L 148.859375 93.597656 C 148.828125 93.355469 148.613281 93.183594 148.371094 93.199219 Z M 148.371094 93.199219 "/>
<path style=" stroke:none;fill-rule:nonzero;fill:rgb(24.705882%,23.921569%,33.72549%);fill-opacity:1;" d="M 147.386719 128.953125 C 146.324219 128.953125 145.261719 128.886719 144.207031 128.757812 C 143.730469 128.765625 143.269531 128.578125 142.9375 128.238281 C 142.222656 127.496094 142.261719 126.226562 142.265625 126.171875 L 142.265625 109.074219 C 142.113281 107.804688 142.492188 106.527344 143.3125 105.542969 C 143.746094 105.007812 144.023438 104.371094 144.117188 103.691406 L 145.464844 93.609375 C 145.519531 93.207031 145.886719 92.921875 146.289062 92.960938 C 146.972656 93 147.660156 92.980469 148.339844 92.914062 L 148.347656 92.914062 C 148.746094 92.882812 149.09375 93.164062 149.148438 93.558594 L 150.546875 103.851562 C 150.640625 104.523438 150.914062 105.160156 151.332031 105.699219 C 152.144531 106.691406 152.484375 107.992188 152.261719 109.253906 L 152.261719 126.09375 C 152.261719 128.414062 150.632812 128.746094 150.617188 128.75 C 149.546875 128.886719 148.46875 128.953125 147.386719 128.953125 Z M 146.21875 93.535156 C 146.128906 93.53125 146.050781 93.597656 146.039062 93.683594 L 144.691406 103.769531 C 144.582031 104.554688 144.261719 105.292969 143.761719 105.910156 C 143.039062 106.777344 142.703125 107.902344 142.839844 109.019531 L 142.84375 109.054688 L 142.84375 126.183594 C 142.84375 126.203125 142.8125 127.277344 143.355469 127.839844 C 143.585938 128.070312 143.902344 128.191406 144.226562 128.179688 L 144.261719 128.179688 C 146.34375 128.441406 148.445312 128.441406 150.527344 128.179688 C 150.554688 128.171875 151.679688 127.917969 151.679688 126.09375 L 151.6875 109.175781 C 151.890625 108.070312 151.59375 106.929688 150.878906 106.058594 C 150.394531 105.441406 150.082031 104.707031 149.972656 103.929688 L 148.574219 93.636719 C 148.558594 93.546875 148.484375 93.484375 148.394531 93.488281 C 147.679688 93.558594 146.960938 93.578125 146.242188 93.539062 C 146.234375 93.539062 146.226562 93.535156 146.21875 93.535156 Z M 146.21875 93.535156 "/>
<path style=" stroke:none;fill-rule:nonzero;fill:rgb(80%,0%,0%);fill-opacity:1;" d="M 146.246094 109.363281 L 148.378906 109.363281 C 150.148438 109.363281 151.578125 110.792969 151.578125 112.554688 L 151.578125 120.574219 C 151.578125 122.335938 150.148438 123.765625 148.378906 123.765625 L 146.246094 123.765625 C 144.476562 123.765625 143.042969 122.335938 143.042969 120.574219 L 143.042969 112.554688 C 143.042969 110.792969 144.476562 109.363281 146.246094 109.363281 Z M 146.246094 109.363281 "/>
<path style=" stroke:none;fill-rule:nonzero;fill:rgb(100%,100%,100%);fill-opacity:1;" d="M 136.09375 78.496094 C 135.390625 78.566406 134.683594 78.582031 133.980469 78.546875 C 133.730469 78.519531 133.503906 78.695312 133.472656 78.945312 L 132.125 89.027344 C 132.023438 89.757812 131.722656 90.449219 131.257812 91.023438 C 130.484375 91.949219 130.128906 93.15625 130.277344 94.351562 L 130.277344 111.480469 C 130.277344 111.480469 130.1875 113.761719 131.945312 113.761719 C 134.050781 114.027344 136.179688 114.027344 138.285156 113.761719 C 138.285156 113.761719 139.691406 113.496094 139.691406 111.390625 L 139.691406 94.523438 C 139.910156 93.335938 139.59375 92.109375 138.824219 91.171875 C 138.375 90.59375 138.082031 89.910156 137.980469 89.1875 L 136.582031 78.890625 C 136.546875 78.652344 136.335938 78.480469 136.09375 78.496094 Z M 136.09375 78.496094 "/>
<path style=" stroke:none;fill-rule:nonzero;fill:rgb(24.705882%,23.921569%,33.72549%);fill-opacity:1;" d="M 135.109375 114.25 C 134.046875 114.25 132.984375 114.183594 131.929688 114.050781 C 131.453125 114.0625 130.992188 113.875 130.660156 113.535156 C 129.945312 112.792969 129.984375 111.523438 129.988281 111.46875 L 129.984375 94.371094 C 129.835938 93.097656 130.214844 91.820312 131.035156 90.839844 C 131.464844 90.304688 131.742188 89.664062 131.839844 88.988281 L 133.1875 78.90625 C 133.242188 78.503906 133.605469 78.214844 134.011719 78.257812 C 134.695312 78.292969 135.382812 78.277344 136.0625 78.207031 L 136.070312 78.207031 C 136.464844 78.179688 136.816406 78.460938 136.867188 78.851562 L 138.269531 89.148438 C 138.363281 89.820312 138.632812 90.457031 139.050781 90.996094 C 139.867188 91.988281 140.207031 93.285156 139.980469 94.550781 L 139.980469 111.390625 C 139.980469 113.710938 138.355469 114.042969 138.339844 114.046875 C 137.269531 114.179688 136.1875 114.25 135.109375 114.25 Z M 133.941406 78.832031 C 133.851562 78.828125 133.773438 78.890625 133.761719 78.980469 L 132.414062 89.066406 C 132.304688 89.851562 131.980469 90.589844 131.484375 91.207031 C 130.757812 92.070312 130.425781 93.195312 130.5625 94.316406 L 130.566406 94.351562 L 130.566406 111.480469 C 130.566406 111.5 130.535156 112.570312 131.078125 113.132812 C 131.304688 113.367188 131.621094 113.488281 131.945312 113.472656 L 131.984375 113.476562 C 134.0625 113.738281 136.167969 113.738281 138.25 113.476562 C 138.277344 113.46875 139.402344 113.210938 139.402344 111.390625 L 139.40625 94.472656 C 139.609375 93.367188 139.316406 92.226562 138.597656 91.355469 C 138.117188 90.738281 137.804688 90.003906 137.695312 89.226562 L 136.292969 78.929688 C 136.28125 78.84375 136.203125 78.78125 136.117188 78.785156 C 135.402344 78.855469 134.683594 78.871094 133.964844 78.835938 C 133.957031 78.832031 133.949219 78.832031 133.941406 78.832031 Z M 133.941406 78.832031 "/>
<path style=" stroke:none;fill-rule:nonzero;fill:rgb(80%,0%,0%);fill-opacity:1;" d="M 133.964844 94.65625 L 136.101562 94.65625 C 137.867188 94.65625 139.300781 96.089844 139.300781 97.851562 L 139.300781 105.867188 C 139.300781 107.632812 137.867188 109.0625 136.101562 109.0625 L 133.964844 109.0625 C 132.199219 109.0625 130.765625 107.632812 130.765625 105.867188 L 130.765625 97.851562 C 130.765625 96.089844 132.199219 94.65625 133.964844 94.65625 Z M 133.964844 94.65625 "/>
<path style=" stroke:none;fill-rule:nonzero;fill:rgb(94.117647%,94.117647%,94.117647%);fill-opacity:1;" d="M 33.226562 18.789062 C 33.226562 24.429688 28.648438 29 22.996094 29 C 17.34375 29 12.765625 24.429688 12.765625 18.789062 C 12.765625 13.148438 17.34375 8.578125 22.996094 8.578125 C 28.648438 8.578125 33.226562 13.148438 33.226562 18.789062 Z M 33.226562 18.789062 "/>
<path style=" stroke:none;fill-rule:nonzero;fill:rgb(94.117647%,94.117647%,94.117647%);fill-opacity:1;" d="M 268.972656 10.210938 C 268.972656 15.851562 264.390625 20.421875 258.738281 20.421875 C 253.089844 20.421875 248.507812 15.851562 248.507812 10.210938 C 248.507812 4.570312 253.089844 0 258.738281 0 C 264.390625 0 268.972656 4.570312 268.972656 10.210938 Z M 268.972656 10.210938 "/>
<path style=" stroke:none;fill-rule:nonzero;fill:rgb(94.117647%,94.117647%,94.117647%);fill-opacity:1;" d="M 149.054688 38.804688 C 149.054688 42.863281 145.753906 46.15625 141.6875 46.15625 C 137.617188 46.15625 134.320312 42.863281 134.320312 38.804688 C 134.320312 34.742188 137.617188 31.449219 141.6875 31.449219 C 145.753906 31.449219 149.054688 34.742188 149.054688 38.804688 Z M 149.054688 38.804688 "/>
</g>
</svg>
