<svg font-family="SFMono-Regular, monospace" font-size="15" height="1260" width="660" xmlns="http://www.w3.org/2000/svg" xmlns:xlink="http://www.w3.org/1999/xlink"><marker id="a" markerHeight="10" markerUnits="strokeWidth" markerWidth="10" orient="auto" refX="8" refY="5"><path d="m0 0 10 5-10 5z" fill="#7b83a6"/></marker><marker id="b" markerHeight="10" markerUnits="strokeWidth" markerWidth="10" orient="auto" refX="8" refY="5"><path d="m0 0 10 5-10 5z" fill="#212431"/></marker><marker id="c" markerHeight="10" markerUnits="strokeWidth" markerWidth="10" orient="auto" refX="8" refY="5"><path d="m0 0 10 5-10 5z" fill="#ffb74d"/></marker><marker id="d" markerHeight="10" markerUnits="strokeWidth" markerWidth="10" orient="auto" refX="8" refY="5"><path d="m0 0 10 5-10 5z" fill="#39b54a"/></marker><marker id="e" markerHeight="10" markerUnits="strokeWidth" markerWidth="10" orient="auto" refX="8" refY="5"><path d="m0 0 10 5-10 5z" fill="#e57373"/></marker><text fill="#7b83a6" font-size="20" font-weight="bold" text-anchor="middle" x="330" y="40">App Lifecycle Execution Order</text><rect fill="#7b83a6" height="48" rx="24" width="320" x="170" y="80"/><text fill="#fff" text-anchor="middle" x="330" y="110">onWillCreate Listener</text><path d="m330 128v30" marker-end="url(#a)" stroke="#7b83a6" stroke-width="2"/><rect fill="#ffb74d" height="48" rx="24" width="280" x="190" y="160"/><text fill="#fff" text-anchor="middle" x="330" y="190">Create (App instantiation)</text><path d="m330 208v30" marker-end="url(#c)" stroke="#ffb74d" stroke-width="2"/><rect fill="#7b83a6" height="48" rx="24" width="320" x="170" y="240"/><text fill="#fff" text-anchor="middle" x="330" y="270">onDidCreate Listener</text><path d="m60 320h540" stroke="#b3b6c5" stroke-dasharray="6 6"/><rect fill="#212431" height="48" rx="24" width="250" x="70" y="420"/><text fill="#fff" text-anchor="middle" x="195" y="450">onWillRun Hook</text><path d="m195 468v30" marker-end="url(#b)" stroke="#212431" stroke-width="2"/><rect fill="#7b83a6" height="48" rx="24" width="250" x="340" y="500"/><text fill="#fff" text-anchor="middle" x="465" y="530">onWillRun Listener</text><path d="m465 548v30" marker-end="url(#a)" stroke="#7b83a6" stroke-width="2"/><rect fill="#39b54a" height="48" rx="24" width="280" x="190" y="580"/><text fill="#fff" text-anchor="middle" x="330" y="610">Run (App execution)</text><path d="m330 628v30" marker-end="url(#d)" stroke="#39b54a" stroke-width="2"/><rect fill="#7b83a6" height="48" rx="24" width="250" x="340" y="660"/><text fill="#fff" text-anchor="middle" x="465" y="690">onDidRun Listener</text><path d="m465 708v30" marker-end="url(#a)" stroke="#7b83a6" stroke-width="2"/><rect fill="#212431" height="48" rx="24" width="250" x="70" y="740"/><text fill="#fff" text-anchor="middle" x="195" y="770">onDidRun Hook</text><path d="m60 820h540" stroke="#b3b6c5" stroke-dasharray="6 6"/><rect fill="#212431" height="48" rx="24" width="250" x="70" y="860"/><text fill="#fff" text-anchor="middle" x="195" y="890">onWillTerminate Hook</text><path d="m195 908v30" marker-end="url(#b)" stroke="#212431" stroke-width="2"/><rect fill="#7b83a6" height="48" rx="24" width="250" x="340" y="940"/><text fill="#fff" text-anchor="middle" x="465" y="970">onWillTerminate Listener</text><path d="m465 988v30" marker-end="url(#a)" stroke="#7b83a6" stroke-width="2"/><rect fill="#e57373" height="48" rx="24" width="280" x="190" y="1020"/><text fill="#fff" text-anchor="middle" x="330" y="1050">Terminate (App termination)</text><path d="m330 1068v30" marker-end="url(#e)" stroke="#e57373" stroke-width="2"/><rect fill="#7b83a6" height="48" rx="24" width="250" x="340" y="1100"/><text fill="#fff" text-anchor="middle" x="465" y="1130">onDidTerminate Listener</text><path d="m465 1148v30" marker-end="url(#a)" stroke="#7b83a6" stroke-width="2"/><rect fill="#212431" height="48" rx="24" width="250" x="70" y="1180"/><text fill="#fff" text-anchor="middle" x="195" y="1210">onDidTerminate Hook</text></svg>