<?xml version="1.0" encoding="UTF-8"?>
<!DOCTYPE svg PUBLIC "-//W3C//DTD SVG 1.1//EN" "http://www.w3.org/Graphics/SVG/1.1/DTD/svg11.dtd">
<svg version="1.1" xmlns="http://www.w3.org/2000/svg" xmlns:xlink="http://www.w3.org/1999/xlink" x="0" y="0" width="1024" height="1024" viewBox="0, 0, 1024, 1024">
  <g id="DWCJ" transform="translate(0, 0)">
    <g>
      <path d="M512,20 C783.724,20 1004,240.276 1004,512 C1004,783.724 783.724,1004 512,1004 C240.276,1004 20,783.724 20,512 C20,240.276 240.276,20 512,20 z" fill="#FFFFFF"/>
      <path d="M512,20 C783.724,20 1004,240.276 1004,512 C1004,783.724 783.724,1004 512,1004 C240.276,1004 20,783.724 20,512 C20,240.276 240.276,20 512,20 L512,20 z M512.024,28 L512,28 C244.694,28 28,244.694 28,512 C28,779.306 244.694,996 512,996 C779.306,996 996,779.306 996,512 C993.864,241.89 781.297,31.408 512.024,28 z" fill="#181E25"/>
    </g>
    <path d="M511.999,20 C783.724,20.001 1004,240.277 1004,512.001 C1004,783.724 783.724,1004 512,1004 C240.276,1004 20,783.724 20,512.001 C21.648,421.378 43.538,327.479 94.907,251.435 L322.897,646.327 L322.898,646.328 C379.509,744.378 504.885,777.973 602.934,721.363 C700.984,664.754 734.579,539.378 677.97,441.329 C621.361,343.279 495.985,309.684 397.934,366.292 L397.932,366.292 L244.106,99.857 C322.865,45.508 417.451,22.393 512,20.001 L511.999,20 z" fill="#181E25"/>
    <path d="M500.469,496.625 C523.112,496.625 541.469,514.982 541.469,537.625 C541.469,560.269 523.112,578.625 500.469,578.625 C477.825,578.625 459.469,560.269 459.469,537.625 C459.469,514.982 477.825,496.625 500.469,496.625 z" fill="#181E25"/>
  </g>
</svg>
