<?xml version="1.0" encoding="utf-8"?>
<!-- Generator: Adobe Illustrator 27.8.0, SVG Export Plug-In . SVG Version: 6.00 Build 0)  -->
<!DOCTYPE svg PUBLIC "-//W3C//DTD SVG 1.1//EN" "http://www.w3.org/Graphics/SVG/1.1/DTD/svg11.dtd" [
	<!ENTITY ns_extend "http://ns.adobe.com/Extensibility/1.0/">
	<!ENTITY ns_ai "http://ns.adobe.com/AdobeIllustrator/10.0/">
	<!ENTITY ns_graphs "http://ns.adobe.com/Graphs/1.0/">
	<!ENTITY ns_vars "http://ns.adobe.com/Variables/1.0/">
	<!ENTITY ns_imrep "http://ns.adobe.com/ImageReplacement/1.0/">
	<!ENTITY ns_sfw "http://ns.adobe.com/SaveForWeb/1.0/">
	<!ENTITY ns_custom "http://ns.adobe.com/GenericCustomNamespace/1.0/">
	<!ENTITY ns_adobe_xpath "http://ns.adobe.com/XPath/1.0/">
]>
<svg version="1.1" id="Ebene_1" xmlns:x="&ns_extend;" xmlns:i="&ns_ai;" xmlns:graph="&ns_graphs;"
	 xmlns="http://www.w3.org/2000/svg" xmlns:xlink="http://www.w3.org/1999/xlink" x="0px" y="0px" width="226.8px" height="55.8px"
	 viewBox="0 0 226.8 55.8" style="enable-background:new 0 0 226.8 55.8;" xml:space="preserve">
<style type="text/css">
	.st0{fill:#002596;}
	.st1{fill:#BFCDD6;}
</style>
<metadata>
	<sfw  xmlns="&ns_sfw;">
		<slices></slices>
		<sliceSourceBounds  bottomLeftOrigin="true" height="55.5" width="225.7" x="241.5" y="103.3"></sliceSourceBounds>
	</sfw>
</metadata>
<g>
	<path class="st0" d="M204.1,29.3V22h-3.4v7.2H200V22h-3.3v7.2H196V22h-3.4v11.5h7.4C202.2,33.5,204.1,31.6,204.1,29.3"/>
	<path class="st1" d="M177.7,55.5H204c12.2,0,22.2-10,22.2-22.2V6.9l-11.7,11.7v14.6c0,5.8-4.7,10.4-10.4,10.4h-14.6L177.7,55.5z"/>
</g>
<polygon class="st0" points="170.7,0 170.7,48.6 182.5,36.8 182.5,11.7 207.6,11.7 219.3,0 "/>
<g>
	<path class="st1" d="M138.7,14.7H132v14.6c0,3-1.2,4.1-3.3,4.1c-1.8,0-3.1-0.8-4-1.5l-3.2,5.2c1.4,1.4,4.2,2.7,7.8,2.7
		c5.6,0,9.3-3.2,9.3-9.9V14.7z"/>
	<path class="st0" d="M118.1,22.1c-2.1,0-3.8,0.7-4.9,2.3v-1.9h-3.6v16.9h3.7v-9.3c0-2.9,1.7-4.5,4-4.5c0.9,0,2,0.2,2.8,0.6l0.9-3.6
		C120.1,22.2,119.2,22.1,118.1,22.1 M95.9,25.5c3,0,5.3,2.2,5.3,5.4s-2.3,5.4-5.3,5.4s-5.3-2.2-5.3-5.4S92.9,25.5,95.9,25.5
		 M95.9,22.1c-5.2,0-9.1,3.8-9.1,8.9s3.9,8.9,9.1,8.9c5.2,0,9.1-3.8,9.1-8.9S101.2,22.1,95.9,22.1 M84.6,22.5h-5.8v-2.9
		c0-1.7,0.8-2.6,2.2-2.6c1.1,0,2.3,0.4,3.2,0.9l1.3-3.1c-1.2-0.7-2.7-1.3-4.7-1.3c-3.9,0-5.6,2.7-5.6,6.1v2.9h-3.4v3.3h3.4v13.5h3.7
		V25.8h5.8V22.5z M60.5,25.5c3.2,0,5.1,2.4,5.1,5.4s-1.9,5.4-5.1,5.4c-3,0-5.1-2.3-5.1-5.4C55.4,27.8,57.5,25.5,60.5,25.5 M61,22.1
		c-2.4,0-4.1,1-5.3,2.4V14H52v25.3h3.7v-2c1.2,1.5,2.9,2.4,5.3,2.4c4.7,0,8.4-3.7,8.4-8.9S65.7,22.1,61,22.1 M39.4,25.3
		c2.3,0,3.9,1.5,4.3,4.2h-8.7C35.3,27,36.8,25.3,39.4,25.3 M39.5,22.1c-5,0-8.4,3.6-8.4,8.9c0,5.4,3.6,8.9,8.6,8.9
		c2.6,0,4.9-0.6,6.9-2.4l-1.8-2.6c-1.4,1.1-3.2,1.8-4.9,1.8c-2.4,0-4.5-1.3-5-4.3h12.5c0-0.4,0.1-0.9,0.1-1.4
		C47.4,25.6,44.2,22.1,39.5,22.1 M16.8,22.5h-4.2L8.4,35.3l-4-12.8H0.6l5.6,16.9h4.3l4.2-12.7l4.2,12.7h4.4l5.6-16.9H25l-4,12.9
		L16.8,22.5z"/>
</g>
</svg>
